<?xml version="1.0" standalone="no"?>
<!DOCTYPE svg PUBLIC "-//W3C//DTD SVG 20010904//EN"
 "http://www.w3.org/TR/2001/REC-SVG-20010904/DTD/svg10.dtd">
<svg version="1.0" xmlns="http://www.w3.org/2000/svg"
 width="512.000000pt" height="512.000000pt" viewBox="0 0 512.000000 512.000000"
 preserveAspectRatio="xMidYMid meet">
<metadata>
Created by potrace 1.11, written by Peter Selinger 2001-2013
</metadata>
<g transform="translate(0.000000,512.000000) scale(0.100000,-0.100000)"
fill="#000000" stroke="none">
<path d="M2105 4903 c-16 -2 -47 -8 -67 -13 -32 -9 -39 -17 -47 -48 -9 -31
-13 -219 -13 -502 1 -36 0 -164 0 -285 -1 -121 -1 -245 0 -275 1 -118 4 -477
3 -510 -1 -19 1 -80 4 -135 3 -55 5 -119 5 -142 0 -29 7 -49 22 -67 l23 -26
245 -5 c135 -3 324 -7 420 -9 96 -2 180 -1 185 2 6 4 44 7 85 8 138 2 262 34
349 92 64 43 201 177 201 197 0 8 9 32 20 52 11 21 20 49 20 63 0 14 7 49 15
79 16 61 11 182 -11 246 -8 22 -14 50 -14 61 0 12 -7 24 -15 28 -8 3 -15 17
-15 31 0 38 -111 154 -177 184 -42 19 -53 29 -53 47 0 26 29 57 69 74 15 6 36
27 46 48 11 20 29 51 41 67 23 32 34 60 41 109 14 101 -9 279 -39 310 -10 10
-18 26 -18 36 0 39 -133 155 -215 186 -16 7 -53 21 -81 33 -29 11 -86 22 -129
25 -42 3 -82 9 -88 13 -7 4 -55 9 -107 11 -52 2 -124 6 -160 8 -84 5 -506 10
-545 7z m388 -258 c1 -5 -14 -11 -33 -13 -33 -2 -34 -2 -15 13 21 17 45 17 48
0z m-108 -25 c-3 -5 -10 -10 -16 -10 -5 0 -9 5 -9 10 0 6 7 10 16 10 8 0 12
-4 9 -10z m760 -10 c3 -5 -1 -10 -9 -10 -9 0 -16 5 -16 10 0 6 4 10 9 10 6 0
13 -4 16 -10z m-555 -84 c0 -9 -30 -14 -35 -6 -4 6 3 10 14 10 12 0 21 -2 21
-4z m203 -82 c67 -25 107 -33 113 -23 7 12 61 12 69 0 3 -6 -10 -13 -30 -17
-28 -5 -35 -11 -35 -29 0 -12 7 -28 15 -35 28 -23 -14 -164 -55 -184 -47 -24
-165 -46 -222 -42 -106 7 -119 32 -115 218 2 68 6 91 19 105 33 32 163 36 241
7z m266 -53 c7 -5 10 -14 6 -20 -5 -9 -10 -9 -21 0 -26 22 -14 38 15 20z m-4
-121 c-7 -11 -45 -33 -45 -26 0 2 7 12 16 20 17 18 39 22 29 6z m142 -36 c-3
-3 -12 -4 -19 -1 -8 3 -5 6 6 6 11 1 17 -2 13 -5z m-67 -18 c0 -3 -4 -8 -10
-11 -5 -3 -10 -1 -10 4 0 6 5 11 10 11 6 0 10 -2 10 -4z m-680 -46 c0 -5 -4
-10 -10 -10 -5 0 -10 5 -10 10 0 6 5 10 10 10 6 0 10 -4 10 -10z m-122 -118
c3 -9 -2 -13 -14 -10 -9 1 -19 9 -22 16 -3 9 2 13 14 10 9 -1 19 -9 22 -16z
m42 -72 c0 -5 -5 -10 -11 -10 -5 0 -7 5 -4 10 3 6 8 10 11 10 2 0 4 -4 4 -10z
m85 -30 c3 -6 -1 -13 -10 -16 -19 -8 -30 0 -20 15 8 14 22 14 30 1z m265 -29
c0 -11 -39 -21 -45 -11 -2 4 -2 10 2 14 10 9 43 7 43 -3z m475 -41 c3 -5 -1
-10 -9 -10 -9 0 -16 5 -16 10 0 6 4 10 9 10 6 0 13 -4 16 -10z m-134 -36 c12
-14 11 -16 -5 -13 -11 2 -21 10 -24 17 -5 17 13 15 29 -4z m-346 -34 c3 -5 -1
-10 -9 -10 -9 0 -16 5 -16 10 0 6 4 10 9 10 6 0 13 -4 16 -10z m-131 -29 c3
-5 -5 -8 -19 -8 -14 0 -22 3 -19 8 3 5 11 9 19 9 8 0 16 -4 19 -9z m496 -35
c0 -2 -7 -6 -15 -10 -8 -3 -15 -1 -15 4 0 6 7 10 15 10 8 0 15 -2 15 -4z
m-281 -46 c37 -7 67 -6 98 1 33 9 47 9 56 0 8 -8 8 -11 -1 -11 -22 0 -12 -27
23 -66 19 -21 36 -45 36 -53 8 -85 -29 -164 -91 -196 -14 -7 -54 -16 -90 -19
-36 -3 -81 -10 -100 -16 -19 -5 -58 -10 -87 -10 -51 0 -54 1 -79 42 -30 47
-36 84 -24 148 5 25 4 52 -1 62 -5 9 -5 19 -1 22 4 2 9 22 10 42 2 21 5 41 8
44 3 3 29 10 57 16 55 11 99 10 186 -6z m381 6 c0 -9 -30 -14 -35 -6 -4 6 3
10 14 10 12 0 21 -2 21 -4z m-50 -86 c0 -5 -4 -10 -9 -10 -6 0 -13 5 -16 10
-3 6 1 10 9 10 9 0 16 -4 16 -10z m-800 -36 c0 -2 -7 -4 -15 -4 -8 0 -15 4
-15 10 0 5 7 7 15 4 8 -4 15 -8 15 -10z m-120 -44 c0 -5 -4 -10 -9 -10 -6 0
-13 5 -16 10 -3 6 1 10 9 10 9 0 16 -4 16 -10z m968 -31 c4 -23 -32 -30 -58
-12 -27 19 -19 30 22 29 22 -1 34 -6 36 -17z m147 12 c7 -12 -28 -23 -49 -15
-9 3 -13 10 -10 15 7 12 51 12 59 0z m-898 -26 c62 -11 70 -14 53 -25 -28 -17
-137 11 -124 32 3 5 12 7 19 4 8 -3 31 -8 52 -11z m-189 -104 c10 -6 8 -10 -9
-14 -28 -7 -46 2 -28 14 17 11 21 11 37 0z m230 -63 c-3 -7 -12 -14 -21 -16
-12 -2 -15 1 -11 12 7 19 38 22 32 4z m622 2 c0 -12 -8 -12 -35 0 -18 8 -17 9
8 9 15 1 27 -3 27 -9z m133 -5 c3 -13 -29 -19 -51 -10 -15 6 -15 8 3 15 24 11
45 8 48 -5z m-258 -86 c4 -6 5 -12 2 -15 -7 -7 -37 7 -37 17 0 13 27 11 35 -2z
m-440 -9 c-3 -5 -13 -10 -21 -10 -8 0 -14 5 -14 10 0 6 9 10 21 10 11 0 17 -4
14 -10z m-235 -38 c-29 -5 -51 15 -30 28 10 6 21 3 33 -8 19 -17 19 -17 -3
-20z m770 22 c0 -2 -7 -4 -15 -4 -8 0 -15 4 -15 10 0 5 7 7 15 4 8 -4 15 -8
15 -10z m-655 -44 c-3 -5 -12 -7 -20 -3 -21 7 -19 13 6 13 11 0 18 -4 14 -10z"/>
<path d="M4269 3036 c-2 -3 -46 -7 -97 -9 -52 -3 -96 -8 -99 -11 -10 -9 -11
-180 -2 -203 8 -21 14 -23 92 -23 56 0 88 -4 94 -12 5 -7 8 -155 8 -331 -1
-262 1 -320 13 -329 22 -19 223 -22 246 -4 17 14 18 33 19 268 0 139 -2 281
-6 314 -9 91 4 104 92 97 61 -5 71 -3 90 16 19 19 21 29 15 109 -3 48 -9 91
-14 96 -6 6 -103 11 -218 11 -115 1 -213 5 -219 8 -6 4 -12 5 -14 3z m111
-124 c0 -5 -7 -9 -15 -9 -8 0 -12 4 -9 9 3 4 9 8 15 8 5 0 9 -4 9 -8z m90 -66
c0 -3 -4 -8 -10 -11 -5 -3 -10 -1 -10 4 0 6 5 11 10 11 6 0 10 -2 10 -4z
m-130 -10 c0 -2 -7 -6 -15 -10 -8 -3 -15 -1 -15 4 0 6 7 10 15 10 8 0 15 -2
15 -4z m-55 -16 c-3 -5 -10 -10 -16 -10 -5 0 -9 5 -9 10 0 6 7 10 16 10 8 0
12 -4 9 -10z m141 -13 c4 -4 -10 -7 -32 -7 -28 0 -35 3 -24 10 16 10 45 8 56
-3z m-12 -48 c-6 -10 -64 -9 -64 1 0 3 16 6 35 7 19 1 32 -3 29 -8z m-39 -59
c-3 -5 -11 -10 -16 -10 -6 0 -7 5 -4 10 3 6 11 10 16 10 6 0 7 -4 4 -10z"/>
<path d="M660 3022 c-53 -6 -155 -45 -204 -76 -103 -67 -188 -188 -215 -305
-10 -46 -12 -181 -3 -196 4 -5 8 -17 9 -26 1 -9 8 -29 14 -45 7 -16 13 -36 15
-44 2 -8 8 -16 13 -18 6 -2 11 -9 11 -16 0 -24 71 -106 128 -149 81 -60 220
-105 310 -101 79 4 89 6 167 33 157 56 279 199 310 367 22 113 4 235 -46 314
-5 8 -13 24 -18 35 -29 64 -159 170 -243 199 -75 25 -176 37 -248 28z m-55
-152 c3 -5 1 -10 -4 -10 -6 0 -11 5 -11 10 0 6 2 10 4 10 3 0 8 -4 11 -10z
m255 0 c0 -5 -5 -10 -11 -10 -5 0 -7 5 -4 10 3 6 8 10 11 10 2 0 4 -4 4 -10z
m-19 -115 c48 -31 50 -34 86 -105 25 -50 30 -138 12 -203 -20 -73 -106 -146
-190 -161 -50 -9 -125 16 -166 56 -47 45 -60 76 -72 170 -11 89 11 152 75 215
56 55 68 59 154 58 44 0 65 -6 101 -30z"/>
<path d="M2798 2474 c-8 -7 -144 -15 -228 -14 -266 4 -428 3 -452 -3 -15 -4
-32 -15 -37 -26 -16 -30 -29 -179 -25 -301 5 -137 4 -126 4 -370 0 -107 0
-208 0 -225 1 -102 -9 -801 -13 -850 -2 -33 -1 -85 2 -115 6 -53 7 -55 51 -76
41 -20 62 -22 235 -22 203 -1 223 3 257 49 24 32 31 124 16 234 -6 44 -12 108
-13 143 -3 70 -5 75 -37 77 -35 3 -32 23 4 27 29 3 33 7 36 35 3 32 -3 38 -36
34 -17 -3 -43 19 -37 29 3 5 -4 15 -16 23 -14 10 -17 17 -9 22 6 4 19 0 28 -8
28 -24 46 -25 80 -5 29 18 32 18 32 3 0 -10 14 -29 31 -44 16 -15 31 -33 33
-41 4 -18 37 -86 76 -155 16 -27 37 -66 47 -85 11 -19 27 -47 37 -63 10 -15
15 -27 11 -27 -4 0 7 -19 24 -42 17 -23 31 -48 31 -56 0 -39 99 -142 138 -143
15 -1 135 -3 266 -4 260 -4 285 0 308 50 9 21 7 31 -14 62 -15 21 -29 48 -32
60 -4 11 -34 54 -66 94 -33 41 -60 78 -60 85 0 6 -18 27 -40 47 -22 19 -40 42
-40 50 0 8 -22 38 -50 67 -27 29 -50 59 -50 66 0 6 -16 32 -36 56 -21 23 -47
65 -60 93 -31 65 -24 74 96 136 52 27 102 59 110 71 8 12 28 34 44 48 15 14
41 52 57 85 54 115 58 138 55 310 -3 154 -4 164 -35 245 -18 47 -44 95 -57
108 -13 13 -24 27 -24 33 0 14 -120 128 -154 146 -17 9 -41 19 -55 24 -14 4
-46 15 -71 24 -25 9 -67 18 -94 21 -27 2 -67 6 -90 10 -44 7 -174 13 -178 8z
m-208 -300 c0 -2 -9 -4 -21 -4 -11 0 -18 4 -14 10 5 8 35 3 35 -6z m-90 -56
c0 -13 -32 -6 -37 9 -3 7 3 9 16 6 12 -3 21 -10 21 -15z m-105 -48 c-3 -5 -13
-10 -21 -10 -8 0 -12 5 -9 10 3 6 13 10 21 10 8 0 12 -4 9 -10z m424 -46 c9
-4 22 -8 30 -10 19 -4 72 -43 91 -67 8 -10 25 -32 38 -48 21 -26 23 -36 18
-106 -2 -43 -9 -90 -15 -105 -29 -76 -154 -141 -268 -139 -115 1 -119 11 -117
259 1 101 5 187 10 192 25 25 65 35 129 33 37 -1 76 -5 84 -9z m-339 -9 c0 -9
-6 -12 -16 -8 -13 5 -13 7 -2 14 17 11 18 11 18 -6z m570 -16 c0 -5 -9 -9 -20
-9 -19 0 -26 11 -14 23 8 8 34 -3 34 -14z m-670 -88 c0 -16 -14 -20 -33 -10
-15 9 -17 13 -7 19 14 9 40 3 40 -9z m755 -51 c3 -5 -1 -10 -9 -10 -9 0 -16 5
-16 10 0 6 4 10 9 10 6 0 13 -4 16 -10z m-50 -100 c3 -5 -1 -10 -10 -10 -9 0
-13 5 -10 10 3 6 8 10 10 10 2 0 7 -4 10 -10z m-751 -19 c5 -8 -35 -31 -54
-31 -15 0 -12 27 3 33 20 9 45 8 51 -2z m156 -21 c0 -5 -3 -10 -7 -11 -5 0
-17 -2 -27 -4 -24 -5 -38 3 -31 16 8 12 65 12 65 -1z m100 -159 c10 -1 11 -4
3 -12 -13 -13 -63 -4 -63 11 0 5 10 8 23 6 12 -3 29 -5 37 -5z m493 -20 c16
-3 6 -21 -12 -21 -27 0 -52 11 -46 20 4 6 26 7 58 1z m-627 -133 c-10 -6 -20
-7 -24 -3 -9 8 20 25 31 18 5 -3 2 -10 -7 -15z m251 6 c-3 -3 -12 -4 -19 -1
-8 3 -5 6 6 6 11 1 17 -2 13 -5z m273 -51 c12 -11 12 -13 0 -13 -23 1 -53 27
-45 40 5 8 10 8 18 -2 7 -7 19 -19 27 -25z m-372 10 c-4 -20 -64 -31 -80 -15
-18 18 2 32 43 32 33 0 40 -3 37 -17z m-233 -13 c8 -13 -20 -24 -41 -16 -8 3
-12 10 -9 16 8 13 42 13 50 0z m470 -10 c25 -11 43 -24 40 -30 -9 -15 -32 -12
-39 5 -3 10 -19 15 -46 15 -37 0 -49 8 -33 23 11 11 29 8 78 -13z m-280 -66
c67 -5 73 -8 55 -29 -21 -25 -87 -19 -116 10 l-25 25 -41 -19 c-22 -10 -49
-16 -60 -13 -14 3 -8 10 29 29 26 13 52 28 58 34 6 6 15 2 25 -12 13 -16 30
-22 75 -25z m122 32 c4 -7 26 -22 48 -32 37 -18 38 -19 15 -23 -33 -4 -90 27
-90 51 0 21 16 24 27 4z m132 -60 c13 -7 19 -16 13 -20 -5 -3 -21 3 -33 14
-27 22 -16 26 20 6z m-25 -75 c3 -5 -1 -12 -10 -15 -22 -9 -24 -8 -24 9 0 16
25 21 34 6z m-368 -103 c4 -5 -4 -8 -17 -6 -12 1 -24 8 -26 15 -5 14 34 6 43
-9z m334 12 c8 -5 11 -10 5 -11 -5 0 -18 -2 -27 -4 -18 -3 -24 6 -11 18 9 9
15 9 33 -3z m-283 -56 c-9 -9 -28 6 -21 18 4 6 10 6 17 -1 6 -6 8 -13 4 -17z
m-107 -34 c3 0 -3 -5 -13 -11 -18 -11 -41 -3 -32 11 4 7 14 7 45 0z m440 0
c12 -8 9 -10 -13 -10 -16 0 -26 4 -22 10 8 12 16 12 35 0z m140 -35 c-7 -9
-15 -13 -17 -11 -7 7 7 26 19 26 6 0 6 -6 -2 -15z m120 -149 c-6 -8 -18 -12
-27 -9 -12 5 -12 7 -1 14 7 5 19 9 27 9 11 0 11 -3 1 -14z"/>
</g>
</svg>
